<?xml version="1.0" encoding="UTF-8" standalone="no"?>
<!-- Created with Inkscape (http://www.inkscape.org/) -->

<svg
   version="1.1"
   id="svg1"
   width="578.25598"
   height="200.50667"
   viewBox="0 0 578.25598 200.50667"
   sodipodi:docname="OVGU-INF.svg"
   inkscape:version="1.3.2 (091e20ef0f, 2023-11-25)"
   xmlns:inkscape="http://www.inkscape.org/namespaces/inkscape"
   xmlns:sodipodi="http://sodipodi.sourceforge.net/DTD/sodipodi-0.dtd"
   xmlns="http://www.w3.org/2000/svg"
   xmlns:svg="http://www.w3.org/2000/svg">
  <defs
     id="defs1">
    <clipPath
       clipPathUnits="userSpaceOnUse"
       id="clipPath2">
      <path
         d="M 0,150.38 H 433.692 V 0 H 0 Z"
         transform="translate(-433.69241,-38.288998)"
         id="path2" />
    </clipPath>
    <clipPath
       clipPathUnits="userSpaceOnUse"
       id="clipPath4">
      <path
         d="M 0,150.38 H 433.692 V 0 H 0 Z"
         transform="translate(-195.4053,-121.8364)"
         id="path4" />
    </clipPath>
    <clipPath
       clipPathUnits="userSpaceOnUse"
       id="clipPath6">
      <path
         d="M 0,150.38 H 433.692 V 0 H 0 Z"
         transform="translate(-158.54691,-84.492602)"
         id="path6" />
    </clipPath>
  </defs>
  <sodipodi:namedview
     id="namedview1"
     pagecolor="#ffffff"
     bordercolor="#000000"
     borderopacity="0.25"
     inkscape:showpageshadow="2"
     inkscape:pageopacity="0.0"
     inkscape:pagecheckerboard="0"
     inkscape:deskcolor="#d1d1d1"
     inkscape:zoom="2.5473148"
     inkscape:cx="289.12799"
     inkscape:cy="100.3017"
     inkscape:window-width="1920"
     inkscape:window-height="1131"
     inkscape:window-x="0"
     inkscape:window-y="0"
     inkscape:window-maximized="1"
     inkscape:current-layer="layer-MC0">
    <inkscape:page
       x="0"
       y="0"
       inkscape:label="1"
       id="page1"
       width="578.25598"
       height="200.50667"
       margin="0"
       bleed="0" />
  </sodipodi:namedview>
  <g
     id="layer-MC0"
     inkscape:groupmode="layer"
     inkscape:label="Ebene 1">
    <path
       id="path1"
       d="m 0,0 v 100.177 c 0,3.322 -2.694,6.014 -6.017,6.014 h -281.14 c 15.491,-13.372 25.345,-33.409 25.345,-55.817 0,-22.724 -10.128,-43.017 -26.002,-56.387 H -6.017 C -2.694,-6.013 0,-3.32 0,0 m -386.071,106.191 h -41.608 c -3.321,0 -6.013,-2.692 -6.013,-6.014 V 0 c 0,-3.32 2.692,-6.013 6.013,-6.013 h 42.264 c -15.873,13.37 -26.003,33.663 -26.003,56.387 0,22.408 9.854,42.445 25.347,55.817"
       style="fill:#176fc1;fill-opacity:1;fill-rule:nonzero;stroke:none"
       transform="matrix(1.3333333,0,0,-1.3333333,578.25653,149.45467)"
       clip-path="url(#clipPath2)" />
    <path
       id="path3"
       d="m 0,0 c 0,-3.582 0.635,-5.404 2.627,-5.404 2.099,0 2.649,2.099 2.649,5.404 0,3.053 -0.466,5.468 -2.649,5.468 C 0.274,5.468 0,2.82 0,0 m -2.352,-0.062 c 0,4.811 1.673,7.332 5,7.332 3.265,0 4.96,-2.396 4.96,-7.332 0,-4.833 -1.673,-7.207 -4.96,-7.207 -3.306,0 -5,2.331 -5,7.207 M 19.296,7.144 H 11.029 C 10.754,7.144 10.5,6.911 10.5,6.634 V 5.596 c 0,-0.276 0.254,-0.488 0.529,-0.488 h 3.01 v -11.74 c 0,-0.277 0.232,-0.51 0.509,-0.51 h 1.229 c 0.276,0 0.509,0.233 0.509,0.51 v 11.74 h 3.01 c 0.275,0 0.487,0.212 0.487,0.488 v 1.038 c 0,0.277 -0.212,0.51 -0.487,0.51 m 4.129,-2.036 h 3.009 v -11.74 c 0,-0.277 0.233,-0.51 0.508,-0.51 h 1.231 c 0.275,0 0.508,0.233 0.508,0.51 v 11.74 h 3.01 c 0.277,0 0.488,0.212 0.488,0.488 v 1.038 c 0,0.277 -0.211,0.51 -0.488,0.51 h -8.266 c -0.276,0 -0.529,-0.233 -0.529,-0.51 V 5.596 c 0,-0.276 0.253,-0.488 0.529,-0.488 M 37.643,0 c 0,-3.582 0.635,-5.404 2.628,-5.404 2.098,0 2.649,2.099 2.649,5.404 0,3.053 -0.467,5.468 -2.649,5.468 C 37.917,5.468 37.643,2.82 37.643,0 M 35.29,-0.062 c 0,4.811 1.674,7.332 5.002,7.332 3.264,0 4.959,-2.396 4.959,-7.332 0,-4.833 -1.674,-7.207 -4.959,-7.207 -3.307,0 -5.002,2.331 -5.002,7.207 m 26.583,-6.614 c 0.083,-0.275 0.36,-0.466 0.636,-0.466 h 1.61 c 0.275,0 0.551,0.191 0.635,0.466 l 3.795,13.248 c 0.083,0.297 -0.085,0.572 -0.403,0.572 h -1.272 c -0.339,0 -0.551,-0.191 -0.636,-0.531 L 63.8,-2.966 c -0.169,-0.679 -0.318,-1.801 -0.445,-2.777 -0.085,0.976 -0.275,2.098 -0.444,2.777 l -2.437,9.6 c -0.086,0.339 -0.319,0.51 -0.659,0.51 h -1.461 c -0.319,0 -0.488,-0.275 -0.404,-0.593 z M 79.707,0 c 0,3.053 -0.466,5.468 -2.649,5.468 -2.352,0 -2.629,-2.648 -2.629,-5.468 0,-3.582 0.637,-5.404 2.629,-5.404 2.099,0 2.649,2.099 2.649,5.404 M 77.08,-7.269 c -3.307,0 -5.003,2.331 -5.003,7.207 0,4.811 1.674,7.332 5.003,7.332 3.263,0 4.959,-2.396 4.959,-7.332 0,-4.833 -1.675,-7.207 -4.959,-7.207 M 96.145,7.144 h -1.081 c -0.275,0 -0.508,-0.233 -0.508,-0.487 l 0.023,-8.246 c 0,-0.996 0.106,-2.311 0.21,-3.412 -0.296,1.039 -0.551,2.078 -0.931,3.01 l -3.581,8.753 c -0.107,0.233 -0.403,0.382 -0.68,0.382 h -1.991 c -0.277,0 -0.509,-0.211 -0.509,-0.487 V -6.655 c 0,-0.255 0.232,-0.487 0.509,-0.487 h 1.125 c 0.274,0 0.505,0.232 0.505,0.487 l -0.021,8.393 c 0,0.784 -0.191,2.482 -0.296,3.562 0.274,-1.08 0.552,-2.268 0.933,-3.159 l 3.729,-8.88 c 0.107,-0.255 0.299,-0.403 0.573,-0.403 h 1.991 c 0.277,0 0.53,0.232 0.53,0.487 V 6.657 c 0,0.254 -0.253,0.487 -0.53,0.487 m 23.448,-6.041 h -3.581 c -0.275,0 -0.508,-0.233 -0.508,-0.509 v -0.996 c 0,-0.276 0.233,-0.508 0.508,-0.508 h 1.865 v -4.175 c -0.423,-0.128 -0.867,-0.192 -1.357,-0.192 -2.246,0 -3.582,1.356 -3.582,5.172 0,3.73 1.145,5.383 3.414,5.383 1.102,0 1.842,-0.253 2.585,-0.613 0.254,-0.128 0.51,0 0.615,0.23 l 0.423,0.913 c 0.129,0.254 0.041,0.51 -0.234,0.657 -0.931,0.488 -2.139,0.805 -3.389,0.805 -3.689,0 -5.811,-2.819 -5.811,-7.227 0,-4.578 1.74,-7.312 5.768,-7.312 1.145,0 2.332,0.212 3.138,0.509 0.508,0.19 0.657,0.403 0.657,0.89 v 6.464 c 0,0.276 -0.236,0.509 -0.511,0.509 m 11.076,-8.372 c 3.051,0 4.662,1.61 4.662,4.557 v 9.347 c 0,0.318 -0.21,0.509 -0.51,0.509 h -1.206 c -0.319,0 -0.532,-0.17 -0.532,-0.509 v -9.242 c 0,-2.161 -0.891,-2.797 -2.457,-2.797 -1.737,0 -2.353,1.059 -2.353,2.925 v 9.114 c 0,0.339 -0.191,0.509 -0.506,0.509 h -1.23 c -0.301,0 -0.489,-0.191 -0.489,-0.509 v -9.347 c 0,-2.883 1.482,-4.557 4.621,-4.557 m 18.491,0.637 v 1.037 c 0,0.275 -0.253,0.509 -0.529,0.509 h -5 v 4.535 h 4.321 c 0.278,0 0.53,0.235 0.53,0.531 v 0.89 c 0,0.275 -0.252,0.487 -0.53,0.487 h -4.321 v 3.794 h 4.83 c 0.298,0 0.511,0.254 0.511,0.53 v 0.954 c 0,0.276 -0.235,0.509 -0.511,0.509 h -6.569 c -0.278,0 -0.511,-0.233 -0.511,-0.509 V -6.632 c 0,-0.278 0.233,-0.51 0.511,-0.51 h 6.739 c 0.276,0 0.529,0.232 0.529,0.51 m 7.601,7.63 h 1.697 c 1.463,0 2.33,0.89 2.33,2.225 0,1.016 -0.679,1.95 -2.097,1.95 h -1.93 z m -2.246,-7.653 V 6.634 c 0,0.277 0.233,0.51 0.508,0.51 h 3.729 c 3.583,0 4.325,-2.205 4.325,-3.624 0,-1.674 -0.932,-3.159 -3.113,-3.498 1.015,-0.211 1.821,-1.103 2.266,-2.035 0.34,-0.72 1.166,-2.777 1.781,-4.472 0.147,-0.381 0.083,-0.657 -0.362,-0.657 h -1.547 c -0.297,0 -0.529,0.085 -0.636,0.446 -0.487,1.463 -0.848,2.967 -1.44,4.089 -0.487,0.934 -1.125,1.781 -2.396,1.781 h -0.869 v -5.829 c 0,-0.254 -0.232,-0.487 -0.509,-0.487 h -1.229 c -0.275,0 -0.508,0.233 -0.508,0.487 m 14.849,-0.487 h 1.312 c 0.276,0 0.51,0.232 0.51,0.51 V 6.635 c 0,0.276 -0.234,0.509 -0.51,0.509 h -1.312 c -0.278,0 -0.51,-0.233 -0.51,-0.509 V -6.632 c 0,-0.278 0.232,-0.51 0.51,-0.51 m 12.79,-0.127 c 1.168,0 2.036,0.234 2.779,0.614 0.191,0.085 0.318,0.34 0.191,0.615 l -0.468,1.017 c -0.082,0.212 -0.337,0.298 -0.593,0.192 -0.421,-0.192 -1.144,-0.402 -1.653,-0.402 -2.055,0 -3.456,1.503 -3.456,5.276 0,3.752 1.315,5.257 3.456,5.257 0.594,0 1.101,-0.149 1.569,-0.361 0.274,-0.127 0.489,-0.044 0.613,0.191 l 0.446,0.869 c 0.15,0.276 0.045,0.552 -0.21,0.7 -0.785,0.466 -1.76,0.571 -2.588,0.571 -3.432,0 -5.659,-2.819 -5.659,-7.206 0,-4.727 2.098,-7.333 5.573,-7.333 m 14.722,0.128 h 1.717 c 0.358,0 0.487,0.254 0.274,0.592 l -4.556,7.313 4.131,5.787 c 0.17,0.253 0.151,0.593 -0.274,0.593 h -1.611 c -0.318,0 -0.509,-0.085 -0.676,-0.34 l -3.733,-5.658 v 5.488 c 0,0.277 -0.232,0.51 -0.509,0.51 h -1.229 c -0.277,0 -0.509,-0.233 -0.509,-0.51 V -6.655 c 0,-0.254 0.232,-0.486 0.509,-0.486 h 1.229 c 0.277,0 0.509,0.232 0.509,0.486 v 6.931 l 4.007,-7.036 c 0.168,-0.297 0.402,-0.381 0.721,-0.381 m 7.055,-0.001 h 6.741 c 0.276,0 0.532,0.232 0.532,0.51 v 1.037 c 0,0.275 -0.256,0.509 -0.532,0.509 h -5.001 v 4.535 h 4.323 c 0.276,0 0.529,0.235 0.529,0.531 v 0.89 c 0,0.275 -0.253,0.487 -0.529,0.487 h -4.323 v 3.794 h 4.832 c 0.296,0 0.508,0.254 0.508,0.53 v 0.954 c 0,0.276 -0.234,0.509 -0.508,0.509 h -6.572 c -0.275,0 -0.506,-0.233 -0.506,-0.509 V -6.632 c 0,-0.278 0.231,-0.51 0.506,-0.51 M 74.366,-22.213 h -1.998 c -0.534,0 -0.867,-0.301 -1.001,-0.833 l -3.83,-15.056 c -0.267,-1.067 -0.5,-2.831 -0.699,-4.365 -0.134,1.534 -0.433,3.298 -0.701,4.365 l -3.829,15.09 c -0.135,0.532 -0.5,0.799 -1.034,0.799 h -2.298 c -0.498,0 -0.766,-0.435 -0.631,-0.933 l 6.161,-20.786 c 0.135,-0.433 0.565,-0.732 0.998,-0.732 h 2.531 c 0.435,0 0.867,0.299 1,0.732 l 5.964,20.82 c 0.133,0.464 -0.133,0.899 -0.633,0.899 m -24.901,0 h -2.066 c -0.432,0 -0.798,-0.367 -0.798,-0.799 v -20.852 c 0,-0.433 0.366,-0.8 0.798,-0.8 h 2.066 c 0.433,0 0.8,0.367 0.8,0.8 v 20.852 c 0,0.432 -0.367,0.799 -0.8,0.799 m 100.607,-21.651 v 20.852 c 0,0.432 -0.366,0.799 -0.801,0.799 h -2.065 c -0.433,0 -0.801,-0.367 -0.801,-0.799 v -20.852 c 0,-0.433 0.368,-0.8 0.801,-0.8 h 2.065 c 0.435,0 0.801,0.367 0.801,0.8 m -36.598,15.488 c 0,1.599 -1.066,3.065 -3.297,3.065 h -3.029 v -6.562 h 2.663 c 2.296,0 3.663,1.398 3.663,3.497 m 5.063,-15.256 c 0.233,-0.6 0.135,-1.032 -0.567,-1.032 h -2.429 c -0.468,0 -0.834,0.132 -1.002,0.699 -0.766,2.299 -1.332,4.663 -2.264,6.429 -0.767,1.466 -1.765,2.798 -3.764,2.798 h -1.363 v -9.159 c 0,-0.4 -0.371,-0.767 -0.801,-0.767 h -1.933 c -0.433,0 -0.801,0.367 -0.801,0.767 v 20.885 c 0,0.432 0.368,0.799 0.801,0.799 h 5.862 c 5.629,0 6.796,-3.465 6.796,-5.696 0,-2.632 -1.467,-4.964 -4.896,-5.497 1.597,-0.332 2.864,-1.733 3.563,-3.198 0.534,-1.131 1.831,-4.362 2.798,-7.028 m 7.104,-0.265 c 1.396,-0.533 3.495,-0.966 5.427,-0.966 4.631,0 7.361,2.696 7.361,6.594 0,3.531 -2.03,5.062 -4.395,6.162 l -1.799,0.834 c -1.768,0.834 -3.263,1.5 -3.263,3.264 0,1.831 1.097,2.931 3.263,2.931 1.498,0 2.397,-0.333 3.464,-0.699 0.433,-0.133 0.797,0.099 0.899,0.5 l 0.366,1.498 c 0.099,0.401 -0.035,0.832 -0.433,0.967 -1.132,0.399 -2.764,0.799 -4.364,0.799 -4.263,0 -6.795,-2.632 -6.795,-6.163 0,-3.231 1.866,-4.631 3.932,-5.597 l 1.365,-0.632 c 2.065,-0.966 4.129,-1.865 4.129,-4.13 0,-2.064 -1.598,-3.164 -3.796,-3.164 -1.665,0 -3.197,0.498 -4.463,0.966 -0.466,0.166 -0.898,-0.068 -1,-0.5 l -0.399,-1.665 c -0.1,-0.4 0.066,-0.834 0.501,-0.999 m -31.479,2.464 h -7.86 v 7.128 h 6.797 c 0.431,0 0.831,0.367 0.831,0.833 v 1.399 c 0,0.434 -0.4,0.766 -0.831,0.766 h -6.797 v 5.964 h 7.593 c 0.467,0 0.801,0.399 0.801,0.831 v 1.5 c 0,0.432 -0.367,0.799 -0.801,0.799 H 83.571 c -0.433,0 -0.801,-0.367 -0.801,-0.799 v -20.852 c 0,-0.433 0.368,-0.8 0.801,-0.8 h 10.591 c 0.435,0 0.836,0.367 0.836,0.8 v 1.632 c 0,0.431 -0.401,0.799 -0.836,0.799 m 116.876,19.22 h -12.991 c -0.433,0 -0.836,-0.367 -0.836,-0.799 v -1.633 c 0,-0.433 0.403,-0.766 0.836,-0.766 h 4.728 v -18.453 c 0,-0.433 0.369,-0.8 0.801,-0.8 h 1.931 c 0.434,0 0.799,0.367 0.799,0.8 v 18.453 h 4.732 c 0.433,0 0.766,0.333 0.766,0.766 v 1.633 c 0,0.432 -0.333,0.799 -0.766,0.799 m -23.085,1.766 c 1.099,0 1.964,0.899 1.964,1.996 0,1.101 -0.897,1.934 -1.997,1.934 -1.033,0 -1.9,-0.833 -1.9,-1.934 0,-1.097 0.867,-1.996 1.933,-1.996 m -8.728,1.996 c 0,-1.097 0.867,-1.996 1.93,-1.996 1.103,0 1.966,0.899 1.966,1.996 0,1.101 -0.898,1.934 -1.999,1.934 -1.03,0 -1.897,-0.833 -1.897,-1.934 M 1.754,-37.336 v 14.324 c 0,0.532 -0.3,0.799 -0.8,0.799 h -1.931 c -0.466,0 -0.766,-0.301 -0.766,-0.799 v -14.692 c 0,-4.528 2.33,-7.159 7.262,-7.159 4.795,0 7.328,2.531 7.328,7.159 v 14.692 c 0,0.498 -0.334,0.799 -0.8,0.799 h -1.898 c -0.501,0 -0.834,-0.267 -0.834,-0.799 v -14.524 c 0,-3.397 -1.398,-4.397 -3.865,-4.397 -2.73,0 -3.696,1.667 -3.696,4.597 m 30.259,-6.695 c 0.167,-0.399 0.467,-0.633 0.899,-0.633 h 3.132 c 0.434,0 0.832,0.367 0.832,0.767 v 20.918 c 0,0.399 -0.398,0.766 -0.832,0.766 h -1.699 c -0.434,0 -0.799,-0.367 -0.799,-0.766 l 0.033,-12.959 c 0,-1.565 0.166,-3.63 0.332,-5.362 -0.466,1.632 -0.865,3.266 -1.465,4.731 l -5.63,13.757 c -0.166,0.367 -0.632,0.599 -1.065,0.599 H 22.62 c -0.433,0 -0.8,-0.333 -0.8,-0.766 v -20.918 c 0,-0.4 0.367,-0.767 0.8,-0.767 h 1.764 c 0.433,0 0.801,0.367 0.801,0.767 l -0.034,13.19 c 0,1.232 -0.299,3.896 -0.467,5.596 0.434,-1.7 0.867,-3.564 1.466,-4.964 z m 138.902,21.818 h -12.991 c -0.433,0 -0.836,-0.367 -0.836,-0.799 v -1.633 c 0,-0.433 0.403,-0.766 0.836,-0.766 h 4.728 v -18.453 c 0,-0.433 0.368,-0.8 0.801,-0.8 h 1.933 c 0.432,0 0.797,0.367 0.797,0.8 v 18.453 h 4.732 c 0.433,0 0.764,0.333 0.764,0.766 v 1.633 c 0,0.432 -0.331,0.799 -0.764,0.799 m 16.339,-13.725 -2.298,8.762 c -0.235,0.899 -0.368,2.232 -0.5,3.131 -0.101,-0.932 -0.268,-2.198 -0.499,-3.131 l -2.165,-8.762 z m 6.094,-7.794 c 0.17,-0.5 -0.098,-0.932 -0.598,-0.932 h -2.331 c -0.467,0 -0.901,0.299 -1.034,0.732 l -1.333,4.931 h -7.028 l -1.267,-4.931 c -0.098,-0.433 -0.499,-0.732 -0.965,-0.732 h -2.164 c -0.501,0 -0.735,0.432 -0.601,0.932 l 5.964,20.753 c 0.133,0.465 0.598,0.766 1.032,0.766 h 2.929 c 0.437,0 0.833,-0.267 1.001,-0.766 z m -30.921,-7.906 h -1.901 c -0.498,0 -0.83,-0.265 -0.83,-0.799 V -66.96 c 0,-3.397 -1.398,-4.396 -3.865,-4.396 -2.731,0 -3.697,1.666 -3.697,4.596 v 14.323 c 0,0.534 -0.299,0.799 -0.799,0.799 h -1.933 c -0.465,0 -0.765,-0.3 -0.765,-0.799 v -14.689 c 0,-4.531 2.332,-7.164 7.262,-7.164 4.795,0 7.327,2.533 7.327,7.164 v 14.689 c 0,0.499 -0.332,0.799 -0.799,0.799 m 47.976,-9.491 h -5.629 c -0.434,0 -0.8,-0.368 -0.8,-0.8 v -1.568 c 0,-0.43 0.366,-0.798 0.8,-0.798 h 2.931 v -6.561 c -0.667,-0.201 -1.366,-0.301 -2.132,-0.301 -3.532,0 -5.629,2.132 -5.629,8.127 0,5.863 1.797,8.463 5.363,8.463 1.731,0 2.896,-0.401 4.065,-0.967 0.398,-0.2 0.797,0 0.963,0.365 l 0.668,1.433 c 0.201,0.4 0.064,0.799 -0.366,1.033 -1.467,0.765 -3.364,1.265 -5.33,1.265 -5.797,0 -9.126,-4.43 -9.126,-11.357 0,-7.196 2.729,-11.495 9.059,-11.495 1.798,0 3.663,0.334 4.929,0.802 0.801,0.3 1.035,0.632 1.035,1.398 v 10.161 c 0,0.432 -0.37,0.8 -0.801,0.8 m -26.951,3.329 c 0,1.6 -1.065,3.065 -3.298,3.065 h -3.03 v -6.56 h 2.666 c 2.297,0 3.662,1.397 3.662,3.495 m 5.064,-15.255 c 0.234,-0.6 0.132,-1.031 -0.567,-1.031 h -2.431 c -0.468,0 -0.832,0.13 -1.001,0.698 -0.767,2.298 -1.331,4.664 -2.263,6.428 -0.766,1.465 -1.767,2.799 -3.766,2.799 h -1.364 v -9.161 c 0,-0.399 -0.366,-0.764 -0.801,-0.764 h -1.93 c -0.435,0 -0.801,0.365 -0.801,0.764 v 20.885 c 0,0.434 0.366,0.799 0.801,0.799 h 5.862 c 5.627,0 6.796,-3.464 6.796,-5.695 0,-2.632 -1.467,-4.962 -4.898,-5.498 1.597,-0.332 2.864,-1.73 3.563,-3.197 0.536,-1.131 1.836,-4.363 2.8,-7.027 m -52.61,5.728 c 0,2.033 -1.465,3.631 -3.965,3.631 h -3.23 v -7.295 h 3.798 c 2.097,0 3.397,1.401 3.397,3.664 m -7.195,6.428 h 2.933 c 2.296,0 3.463,1.268 3.463,3.165 0,1.966 -1.065,3.132 -3.263,3.132 h -3.133 z m 10.992,-6.861 c 0,-4.03 -2.464,-6.326 -6.729,-6.326 h -6.994 c -0.433,0 -0.799,0.365 -0.799,0.764 v 20.885 c 0,0.434 0.366,0.799 0.799,0.799 h 6.629 c 3.864,0 6.128,-2.398 6.128,-5.695 0,-2.365 -1.097,-3.998 -3.665,-4.83 3.034,-0.5 4.631,-2.798 4.631,-5.597 M 18.179,-51.638 h -3.772 c -0.417,0 -0.87,-0.3 -0.974,-0.665 l -4.35,-15.268 c -0.21,-0.824 -0.342,-2.236 -0.441,-3.379 -0.1,1.143 -0.232,2.555 -0.442,3.379 l -4.348,15.268 c -0.105,0.365 -0.558,0.665 -0.976,0.665 h -3.783 c -0.453,0 -0.837,-0.333 -0.837,-0.765 v -20.919 c 0,-0.399 0.384,-0.764 0.837,-0.764 h 1.708 c 0.42,0 0.802,0.33 0.837,0.764 L 1.584,-59.34 c -0.009,0.8 -0.169,3.726 -0.218,4.627 0.272,-1.155 0.66,-3.131 1.018,-4.588 l 4.115,-14.021 c 0.104,-0.466 0.524,-0.764 0.976,-0.764 H 8.69 9.8 c 0.455,0 0.872,0.298 0.977,0.764 l 4.122,14.021 c 0.358,1.457 0.747,3.433 1.018,4.588 -0.049,-0.901 -0.208,-3.827 -0.217,-4.627 l -0.054,-13.982 c 0.036,-0.434 0.418,-0.764 0.837,-0.764 h 1.696 c 0.452,0 0.835,0.365 0.835,0.764 v 20.919 c 0,0.432 -0.383,0.765 -0.835,0.765 m 70.481,-11.29 c 0,3.562 -0.501,5.495 -1.501,6.795 -0.799,1.031 -2.097,1.531 -3.53,1.531 h -2.198 v -16.422 h 2.132 c 3.264,0 5.097,1.398 5.097,8.096 m 3.729,0.199 c 0,-7.128 -1.931,-11.357 -8.259,-11.357 H 78.7 c -0.433,0 -0.799,0.365 -0.799,0.798 v 20.851 c 0,0.434 0.366,0.799 0.799,0.799 h 5.296 c 4.733,0 8.393,-2.531 8.393,-11.091 m -25.93,1.6 h -5.628 c -0.433,0 -0.799,-0.368 -0.799,-0.8 v -1.568 c 0,-0.43 0.366,-0.798 0.799,-0.798 h 2.93 v -6.561 c -0.665,-0.201 -1.366,-0.301 -2.131,-0.301 -3.531,0 -5.629,2.132 -5.629,8.127 0,5.863 1.799,8.463 5.361,8.463 1.734,0 2.901,-0.401 4.067,-0.967 0.398,-0.2 0.798,0 0.965,0.365 l 0.666,1.433 c 0.199,0.4 0.066,0.799 -0.368,1.033 -1.465,0.765 -3.363,1.265 -5.33,1.265 -5.794,0 -9.126,-4.43 -9.126,-11.357 0,-7.196 2.733,-11.495 9.062,-11.495 1.798,0 3.662,0.334 4.929,0.802 0.799,0.3 1.032,0.632 1.032,1.398 v 10.161 c 0,0.432 -0.365,0.8 -0.8,0.8 m -27.147,-4.233 -2.299,8.762 c -0.232,0.898 -0.365,2.232 -0.498,3.131 -0.102,-0.933 -0.268,-2.2 -0.5,-3.131 l -2.164,-8.762 z m 6.097,-7.794 c 0.165,-0.499 -0.101,-0.93 -0.601,-0.93 h -2.33 c -0.467,0 -0.901,0.298 -1.035,0.73 l -1.333,4.932 h -7.027 l -1.266,-4.932 c -0.101,-0.432 -0.5,-0.73 -0.966,-0.73 h -2.165 c -0.499,0 -0.732,0.431 -0.6,0.93 l 5.964,20.753 c 0.133,0.465 0.599,0.765 1.032,0.765 h 2.932 c 0.432,0 0.832,-0.265 0.999,-0.765 z m 68.844,1.499 v -1.631 c 0,-0.433 -0.399,-0.798 -0.834,-0.798 h -10.593 c -0.432,0 -0.799,0.365 -0.799,0.798 v 20.851 c 0,0.434 0.367,0.799 0.799,0.799 h 10.328 c 0.433,0 0.801,-0.365 0.801,-0.799 v -1.499 c 0,-0.432 -0.336,-0.832 -0.801,-0.832 h -7.594 v -5.962 h 6.794 c 0.431,0 0.834,-0.333 0.834,-0.767 v -1.4 c 0,-0.464 -0.403,-0.831 -0.834,-0.831 h -6.794 v -7.128 h 7.859 c 0.435,0 0.834,-0.367 0.834,-0.801"
       style="fill:#ffffff;fill-opacity:1;fill-rule:nonzero;stroke:none"
       transform="matrix(1.3333333,0,0,-1.3333333,260.5404,38.058133)"
       clip-path="url(#clipPath4)" />
    <path
       id="path5"
       d="m 0,0 c 0.081,8.05 -4.811,5.347 -6.473,9.445 -1.576,3.889 1.322,7.732 -1.957,10.522 -1.17,0.995 -2.224,1.025 -3.533,1.854 -3.49,2.206 -6.072,5.229 -7.412,7.365 -1.301,2.072 0.101,4.148 -1.232,6.31 -0.707,1.149 -1.793,1.373 -2.33,2.601 -0.546,1.247 0.633,2.428 -0.266,3.452 -1.506,1.711 -2.925,3.075 -4.143,6.914 -3.702,11.669 -8.449,10.154 -9.484,10.824 -2.852,1.845 -7.773,4.082 -11.377,5.039 -4.23,1.123 -6.774,1.488 -10.027,1.557 -5.063,0.104 -6.047,-1.646 -6.811,-1.581 -9.931,0.854 -14.52,-2.201 -20.274,-5.085 -7.163,-3.591 -11.066,-10.058 -12.886,-15.911 -0.904,-2.91 -1.721,-4.507 -2.772,-7.51 -0.658,-1.859 -1.771,-3.097 -3.332,-3.929 -1.419,-0.755 -2.403,-1.566 -4.351,-1.634 -1.66,-0.058 -3.825,-0.947 -4.272,-1.844 l 0.112,-3.23 c 0,0 0.937,0.279 2.47,1.696 1.192,1.102 2.243,-0.061 4.928,-0.391 6.295,-0.204 9.737,3.691 10.105,4.517 0.538,1.149 -0.006,4.307 0.699,4.826 l 1.01,0.035 c -0.234,-1.891 0.133,-4.137 -1.374,-6.19 -1.89,-2.576 -4.454,-3.248 -5.153,-3.498 -4.079,-1.46 -6.254,-0.88 -8.3,-0.62 -2.361,0.301 -0.171,-3.394 -6.907,-2.664 -2.265,0.244 -4.577,-1.802 -4.638,-3.694 -0.068,-2.024 0.142,-9.667 0.367,-10.184 l 3.309,-2.899 c 0,0 -0.746,3.763 1.744,2.685 3.479,-1.507 9.473,-0.062 10.037,0.38 -1.261,-1.174 -1.436,-2.481 -2.405,-3.715 -2.148,-2.617 -6.541,-4.096 -5.478,-8.837 2.212,-9.875 -2.389,-9.374 -2.389,-9.374 -2.884,-0.099 -5.006,3.994 -5.006,3.994 l 0.209,-4.367 c -0.039,-2.257 4.284,-7.328 7.272,-6.089 l 1.959,-3.833 c 7.066,-1.157 0.054,-6.526 0.123,-8.501 l 2.936,-6.157 c 0.152,0.504 0.446,6.507 3.347,6.254 2.726,-0.237 2.982,-2.714 2.982,-2.714 -5,-3.757 1.043,-9.954 4.604,-11.841 0,0 0.445,0.809 1.25,0.975 -1.758,0.646 -2.87,1.957 -2.529,3.184 0.35,1.259 0.616,1.048 1.648,1.374 1.309,0.416 1.659,0.059 2.867,0.665 1.284,0.646 1.744,-1.168 2.918,-0.815 0.874,0.263 2.209,1.379 3.449,2.213 -2.192,-2.834 -4.101,-6.871 -8.244,-12.393 -0.804,-1.074 -0.877,-9.66 -0.462,-17.933 l 0.073,-1.353 c 0.377,-6.628 1.063,-12.773 1.93,-14.331 0.107,-0.19 -0.556,-0.283 3.735,6.172 l 1.045,1.61 c 4.617,7.31 11.115,16.15 17.313,21.87 l 1.395,8.691 c 0.345,-0.072 0.715,-0.111 1.098,-0.098 l -0.963,-8.585 c 1.835,-0.507 5.17,-4.945 13.881,-15.574 l 1.529,-1.864 c 4.956,-6.037 10.966,-12.578 11.254,-12.135 1.672,2.575 20.85,34.444 20.85,34.444 0,0 -5.635,7.965 -7.302,13.221 2.05,2.016 1.907,0.06 7.259,-3.422 4.143,-2.694 5.789,-0.222 5.789,-0.222 0,0 -3.848,2.277 -3.858,4.57 -0.029,5.073 2.055,4.902 3.135,4.761 2.565,-0.334 1.37,-2.63 1.37,-2.63 l 2.702,0.023 c 0,0 0.883,0.523 1.163,1.098 1.961,4.013 -6.854,6.203 -8.295,7.463 -1.461,1.281 -0.582,3.787 -0.582,3.787 4.551,-5.621 7.432,-4.252 12.116,-2.959 l 4.787,4.818 c -5.085,-0.6 -10.564,-5.154 -14.494,6.543 l 0.966,0.873 c 2.318,-4.164 4.826,-5.762 7.867,-5.937 l 7.15,7.455 c -8.324,-5.797 -7.727,4.949 -7.727,4.949 C -1.773,-5.076 -0.017,-1.672 0,0 m -103.818,-13.556 c 0.124,-3.527 -3.205,-5.478 -6.237,-5.583 0,0 -0.085,0.349 -0.38,0.551 3.031,0.106 6.119,1.695 5.996,5.22 0,0 0.612,0.094 0.621,-0.188 m 36.006,-40.036 0.822,6.152 c 25.394,2.975 30.096,16.918 30.096,16.918 0,0 1.478,2.344 1.724,1.591 3.539,-10.884 10.006,-20.515 10.006,-20.515 l -18.779,-31.442 c -1.012,1.18 -21.687,26.313 -23.869,27.296 m -16.668,14.588 c 1.814,-5.532 8.439,-6.245 10.474,-7.011 0.684,-0.257 1.785,-0.216 1.785,-0.216 l -1.089,-6.996 c -13.833,-15.695 -19.499,-26.811 -19.499,-26.811 -1.989,9.217 -1.175,27.685 -1.175,27.685 0,0 5.091,7.265 9.504,13.349 m 5.159,1.433 c 0.032,-0.937 0.196,-1.538 0.087,-2.483 -0.237,0.598 -0.927,1.917 -0.927,1.917 0.142,0.072 0.657,1.705 0.649,1.906 0.238,1.419 0.696,2.645 1.828,3.022 -0.121,-0.61 -0.56,-1.008 -1.071,-2.121 -0.532,-1.163 -0.599,-1.297 -0.566,-2.241 m 54.544,29.009 c -2.16,-0.216 -3.379,1.577 -3.379,1.577 -2.725,-4.756 -5.288,-1.738 -5.288,-1.738 0.015,3.392 -4.312,-17.226 -4.972,-20.389 -1.236,-2.344 -5.885,-10.77 -20.213,-15.043 l 0.531,0.283 c 1.221,0.702 1.6,1.745 2.457,2.973 0.744,1.066 1.377,1.596 1.763,2.819 0.081,0.251 -0.209,0.699 -0.544,1.257 0.643,0.024 2.729,1.844 3.35,2.471 1.869,1.88 3.478,2.945 5.129,4.885 2.132,2.562 4.087,3.974 5.646,6.517 1.083,1.787 1.465,3.145 1.746,5.372 0.459,3.244 1.892,7.329 2.059,10.763 -1.078,-1.92 -1.532,-3.281 -1.91,-4.773 -0.633,-2.375 -0.727,-3.791 -1.367,-5.964 -0.641,-2.175 -0.869,-3.863 -2.246,-5.458 -1.169,-1.385 -2.422,-2.369 -3.749,-3.358 -3.761,-2.849 -6.211,-7.148 -11.47,-8.243 -2.58,1.921 -5.84,3.849 -6.739,3.735 0,0 -1.161,-0.321 -1.867,-0.346 l -0.297,-1.845 c 0,0 1.043,-0.422 1.019,-0.178 -0.112,1.127 0.893,1.205 0.844,0.666 -0.052,-0.566 0.865,-4.064 -0.591,-5.88 -0.262,-0.327 0.123,4.804 -1.445,4.185 l -0.569,-2.35 -0.723,-0.025 c 0,0 0.129,0.498 0.077,1.981 -0.05,1.425 -0.473,2.635 -2.68,3.759 -0.467,0.237 -0.496,-2.887 -0.947,-3.392 l -1.636,-0.764 c -0.3,1.025 -0.731,2.376 -0.227,2.393 1.523,0.052 0.832,1.324 1.223,2.231 0.25,0.581 0.683,0.741 0.584,1.515 -0.395,3.086 0.058,6.939 -0.447,6.922 -0.423,-0.014 -0.775,-0.235 -1.085,0.033 -0.324,0.277 -0.037,1.056 -0.037,1.056 -1.582,-0.195 -0.92,-6.738 -0.92,-6.738 -0.661,-0.927 -2.045,-1.852 -2.702,-2.514 0,0 -0.488,-0.375 -0.591,-0.328 -1.86,0.014 -3.754,-3.145 -3.754,-3.145 -0.711,-0.16 -3.188,4.269 -3.298,4.188 -0.337,1.467 0.304,0.477 -0.847,3.657 -0.177,1.203 -1.501,6.068 -1.689,6.349 -2.635,2.668 -2.336,14.464 -3.473,17.426 -0.681,1.776 -3.07,2.361 -3.307,4.457 -0.42,3.692 0.195,5.308 0.844,8.636 0.186,0.951 0.028,1.571 0.489,2.437 0.531,0.999 1.116,1.823 2.3,1.876 1.078,0.049 1.307,-1.008 2.222,-1.546 0.789,-0.464 1.147,-1.025 2.063,-1.128 3.337,-0.378 3.011,0.67 3.011,0.67 l 1.63,0.904 c -0.517,0.336 -1.352,-0.252 -2.229,-0.29 -0.991,-0.04 -1.601,-0.113 -2.536,0.194 -0.958,0.315 -2.756,0.909 -2.005,1.554 0.522,0.449 0.823,-0.818 1.809,-0.078 0,0 -1.598,1.361 -1.097,2.432 -0.319,0.321 0.156,0.76 0.543,1.008 0.335,0.214 0.722,0.237 1.004,0.247 0,0 -0.405,-1.483 -0.064,-2.333 0.386,-0.962 1.094,-1.437 2.154,-1.688 0.656,-0.157 1.091,-0.081 1.732,0.13 0.938,0.31 1.636,0.692 1.819,1.687 0.11,0.606 0.038,0.991 0.234,1.562 0,0 0.609,-0.896 1.207,-1.44 0.376,-0.343 -0.009,-0.831 0.261,-1.263 0.185,-0.296 0.393,-0.434 0.74,-0.538 0.488,-0.146 0.896,-0.115 1.713,0.625 0.143,0.273 0.233,0.409 0.045,0.779 -0.387,0.762 -0.913,-0.738 -3.554,2.486 -0.599,0.731 -1.274,0.815 -2.205,1.053 -1.12,0.287 -1.749,0.362 -2.969,0.179 -0.325,-0.114 -0.397,0.021 -0.744,0.61 0,0 0.296,0.37 0.56,0.514 1.475,0.799 3.543,-0.089 4.316,0.574 -1.165,0.241 -0.615,0.51 -1.105,0.596 -1.673,0.295 -1.234,0.169 -3.834,0.079 0,0 -1.508,-0.265 -2.418,-1.074 -0.797,-0.706 -1.742,-1.897 -1.742,-1.897 -0.349,-0.186 -0.639,0.559 -0.745,0.681 0,0 0.849,1.97 1.85,2.887 1.03,0.946 1.981,1.201 3.19,1.737 1.09,0.482 1.872,-0.113 3.047,-0.316 1.283,-0.223 1.825,-0.503 3.211,-0.878 0.941,-0.254 0.801,-1.42 1.724,-1.776 0.24,-0.091 0.465,0.05 0.655,-0.117 0.213,-0.189 0.138,-0.494 -0.049,-0.709 -0.403,-0.464 -1.002,0.095 -1.6,0.298 -0.348,0.118 -0.443,0.414 -0.811,0.466 -0.251,0.035 -0.394,-0.06 -0.646,-0.093 -0.866,-0.11 1.108,-0.759 1.709,-1.353 0.711,-0.703 0.611,-1.669 1.587,-1.991 0.454,-0.151 0.823,0.141 1.232,-0.1 0.5,-0.293 0.501,-0.768 0.552,-1.321 0.02,-0.232 0.029,-0.439 0.014,-0.632 -0.045,-1.594 -1.205,-2.116 -1.518,-2.452 -1.105,-1.182 -0.498,-6.271 -0.349,-8.484 0,0 -2.834,-4.94 -0.885,-7.427 0.601,-0.767 0.599,-0.785 2.224,-2.207 0,0 -1.157,-3.353 -2.023,-3.567 -0.795,0.173 -5.144,-1.369 -6.043,-4.357 l -0.115,-0.811 c 0.01,-0.308 -2.239,-0.461 -3.904,1.073 -0.461,0.424 -0.788,-3.075 -0.077,-5.001 0.319,-0.929 0.809,-2.66 3.222,-2.039 0.823,0.052 2.53,0.381 3.114,1.051 0.15,-0.148 4.092,-2.346 5.739,-2.288 2.146,0.075 3.006,1.407 2.995,1.714 0,0 -0.87,0.04 -1.877,-0.066 -3.495,-0.366 -3.236,1.582 -3.236,1.582 1.344,0.824 1.482,1.019 3.124,0.773 1.314,-0.198 1.513,-0.283 2.31,-0.684 0.158,-0.021 0.584,-0.019 0.791,0.053 1.061,0.373 2.182,1.084 4.659,0.66 0.566,-0.095 2.513,-1.345 4.591,-0.542 l -0.598,0.251 1.076,-0.029 -0.478,-0.222 c 1.155,-0.442 0.631,0.126 2.003,0.068 1.81,-0.078 1.083,-4.127 5.542,-3.479 2.012,0.294 1.615,7.54 1.615,7.54 l -0.939,-0.032 c 0.013,-2.471 -0.78,-4.127 -1.427,-4.18 -1.441,-0.123 -1.444,1.537 -4.377,2.778 0,0 -1.005,1.279 0.374,1.116 1.089,-0.13 1.195,-2.114 3.918,-1.478 l 0.021,2.21 c -4.116,-0.144 -4.081,3.727 -8.48,3.653 -1.484,-0.024 0.478,-1.254 -1.324,-1.387 -1.225,-0.091 -0.566,0.676 -2.701,0.332 -0.575,-0.093 -1.511,1.352 -1.379,2.255 0.123,0.849 0.933,0.261 1.118,1.098 0,0 -1.031,3.022 0.998,2.883 0.98,-0.069 2.773,-2.87 3.743,0.413 0.51,0.022 -0.438,0.124 -0.438,0.124 -0.251,0.23 -0.18,-1.072 -0.988,-0.669 -1.324,0.66 -0.838,1.242 -2.927,1.028 -3.037,-0.313 -2.16,-3.301 -3.012,-2.718 -4.517,3.091 -6.455,4.787 -3.678,10.109 l 0.399,-1.045 c -0.184,3.171 -0.584,8.452 0.082,10.027 0.285,0.67 0.397,1.935 0.56,2.921 0.518,3.133 0.49,6.782 -0.623,7.174 -3.476,1.22 -2.637,4.432 -6.23,4.845 l -6.582,-0.19 c 0,0 -0.923,3.761 3.368,5.04 0,0 -0.501,5.071 0.932,6.385 1.122,1.028 3.182,-0.029 2.342,3.33 -0.152,0.61 -0.56,0.576 -0.9,0.956 -0.793,0.889 -1.17,0.385 -1.961,2.333 -0.505,1.245 2.346,3.188 2.346,3.188 10.029,-1.627 13.422,7.081 13.422,7.081 3.721,-6.711 12.04,-5.964 12.04,-5.964 2.006,-0.066 4.159,-0.124 6.101,-2.476 1.333,-1.615 1.609,-2.811 3.718,-3.905 2.188,-1.134 4,0.275 4,0.275 -2.297,0.188 -3.907,1.429 -4.886,3.342 -3.546,6.93 -6.96,6.535 -7.924,6.251 0.859,0.401 0.798,1.261 3.852,0.851 4.437,-0.595 6.606,-8.047 9.461,-8.41 4.354,-0.554 4.243,-1.319 3.225,-5.309 -1.271,-4.987 -1.5,-9.554 -0.041,-15.392 0.885,-3.542 3.46,-4.977 3.77,-8.622 0.491,-5.773 -2,-7.585 -0.1,-13.701 1.303,-4.189 -0.845,-8.925 3.86,-11.16 l 0.552,0.725 c -4.568,2.522 -1.67,6.436 -1.67,6.436 -0.048,-6.919 5.602,-7.287 5.602,-7.287 -1.873,1.274 -0.368,2.246 -0.368,2.246 2.431,0.79 3.772,-3.622 0.716,-3.929 m -47.498,-2.114 c 0.763,0.796 0.307,1.445 0.81,1.371 0.651,-0.093 1.086,-1.326 1.086,-1.326 0,0 0.04,-0.507 0.828,-1.235 0.842,-0.777 3.293,-0.89 4.42,-1.406 l 2.34,-2.686 c -1.12,0.144 -2.056,0.7 -2.786,1.124 -3.262,2.054 -5.638,-0.534 -5.638,-0.534 -2.148,2.008 -3.062,1.507 -6.93,-0.51 -1.072,-0.56 -1.73,0.342 -0.663,0.515 0.298,0.153 1.492,2.456 2.306,2.655 1.279,0.315 3.124,0.883 4.227,2.032 m -11.973,28.583 c 0,0 0.725,-0.293 0.963,-0.672 0.15,-0.241 0.169,-0.701 0.169,-0.701 -0.382,-0.578 -1.829,0.643 -1.132,1.373 m 3.33,-0.166 -0.402,-0.931 -0.032,0.916 z m 39.762,2.39 c 0.078,-0.281 -1.461,2.512 -2.051,3.276 -0.885,1.113 -1.318,1.104 -2.129,2.149 -0.445,0.627 -1.181,2.65 -1.955,2.706 -2.387,0.166 -3.998,-1.263 -5.225,-1.358 -0.664,-0.05 0.493,0.785 0.493,0.785 0.207,0.641 -4.204,0.841 -4.204,0.841 0,0 -3.25,0.01 -3.442,-1.476 l 0.01,-0.564 2.703,-0.45 c 1.161,-0.333 1.372,0.095 2.747,-0.092 l 2.526,0.048 2.242,0.675 1.193,-0.11 c 0.361,0.006 0.709,-0.5 0.847,-0.768 0.821,-1.608 1.68,-1.801 2.9,-2.976 2.321,-2.236 2.341,-3.128 3.345,-2.686 m -18.049,5.098 c -0.651,0.058 -1.129,-1.644 -2.787,-1.816 -2.228,-0.231 -3.059,1.496 -3.805,2.963 0.07,0.143 -0.241,1.478 -0.316,1.618 l -0.572,-0.292 c 0.037,-2.329 0.949,-5.064 3.273,-5.798 l 0.032,-1.975 0.72,0.084 c 0.289,0.005 0.346,0.924 0.627,1.494 0.069,0.142 0.996,0.865 1.717,1.02 1.007,0.16 2.16,0.392 3.531,0.418 l -0.014,0.846 -1.66,-0.031 -0.582,0.272 0.347,0.853 c -0.075,0.139 -0.295,0.325 -0.511,0.344 M -63.49,2.888 -64.139,2.866 c 0.044,-0.424 0.178,-0.646 0.327,-1.047 0.224,-0.611 -0.258,-0.927 0.843,-1.453 l 0.07,-1.975 0.622,-0.013 -0.091,2.609 -0.548,-0.055 z m 1.339,12.548 c 0.004,-0.283 -0.062,-0.637 0.017,-1.06 l 1.589,-0.041 -0.224,0.561 c 0,0 0.065,0.355 0.062,0.566 l 0.645,0.295 c 0.869,-0.125 1.221,-2.014 3.021,-1.697 0.071,0.012 -0.041,0.623 -0.041,0.623 -1.668,0.321 -1.755,1.237 -1.755,1.237 1.196,1.928 3.218,1.965 3.224,1.612 l -0.202,-0.851 c 0.031,-1.903 0.492,-3.589 2.73,-3.547 1.588,0.029 2.874,0.9 3.286,2.247 0.364,-0.203 0.69,-0.656 0.884,-1.112 0.301,-0.699 0.013,-0.775 0.022,-1.341 0.004,-0.211 -0.863,-0.157 -0.56,-1.138 l 1.086,-0.051 0.844,1.356 c -0.028,1.763 -1.877,4.481 -3.769,5.153 -0.579,0.201 -1.525,0.607 -2.608,0.657 l -2.312,-0.043 c -0.648,-0.082 -1.577,-0.734 -1.577,-0.734 -1.119,-0.296 -1.027,0.968 -1.027,0.968 0.496,0.669 0.564,0.857 2.576,1.46 l 2.67,0.19 c -0.119,0.224 0.159,0.779 0.159,0.779 -4.982,-0.022 -6.536,-2.14 -6.85,-2.455 -0.141,-0.143 -0.991,-1.219 -0.987,-1.431 0,-0.069 0.942,-0.194 0.942,-0.194 l 0.28,0.57 c 0.362,-0.063 0.866,0.016 0.872,-0.336 0.013,-0.847 -0.643,-0.507 -0.626,-1.494 l -0.577,-0.011 c -0.868,-0.016 -1.811,0.249 -1.794,-0.738 m 10.301,0.744 -1.371,-0.024 -0.011,0.775 1.369,0.025 z m -2.595,0.668 c 0,0 -0.321,-2.547 1.986,-2.291 l -0.355,-0.29 c -2.381,-0.185 -1.989,2.293 -1.631,2.581 m -2.271,-4.053 -1.499,-0.027 0.011,-0.634 1.011,0.018 0.015,-0.929 0.578,0.01 z m 8.907,4.529 c 1.092,-4.92 4.344,-5.071 4.344,-5.071 l 0.626,0.66 c 0,0 -3.253,0.151 -4.344,5.07 -0.264,-0.148 -0.626,-0.659 -0.626,-0.659 m 5.846,0.32 c -0.01,0.564 -0.084,0.704 -0.166,1.338 l -0.496,-0.574 c -0.332,0.103 -0.814,1.336 -1.232,1.815 l -0.899,-0.159 c 0.379,-1.122 1.694,-1.452 1.42,-2.375 -0.045,-0.151 0.943,-0.335 1.373,-0.045 m -23.914,-37.43 c -0.008,0.209 -0.511,0.123 -0.727,0.116 -0.289,-0.01 -0.396,-0.678 -0.633,-0.516 -0.591,0.402 -1.263,1.015 -1.293,1.861 l -1.804,-0.064 c -0.018,0.493 -1.142,0.189 -0.975,-0.479 0.215,0.007 1.067,-0.082 1.063,0.059 0.75,-0.82 1.547,-0.863 1.854,-1.418 0.464,-0.832 0.207,-1.759 0.872,-2.158 0.157,1.7 1.684,1.4 1.643,2.599"
       style="fill:#231f20;fill-opacity:1;fill-rule:nonzero;stroke:none"
       transform="matrix(1.3333333,0,0,-1.3333333,211.39587,87.849867)"
       clip-path="url(#clipPath6)" />
  </g>
</svg>
